# xmcd
#
# Track frame offsets:
#	150
#	9767
#	50365
#	96576
#	123316
#	131534
#	142413
#	195260
#	245955
#	330035
#
# Disc length: 4751 seconds
#
# Revision: 1
# Processed by: cddbd v1.5.2PL0 Copyright (c) Steve Scherf et al.
# Submitted via: audiograbber 1.83.01
#
DISCID=87128d0a
DTITLE=Grateful Dead - 71-02-19M Capitol Theatre, Port Chester NY
DYEAR=1900
DGENRE=
TTITLE0=Tuning
TTITLE1=Bird Song
TTITLE2=Easy Wind
TTITLE3=Deal
TTITLE4=Cryptical Envelopment
TTITLE5=Drums
TTITLE6=The Other One
TTITLE7=Wharf Rat
TTITLE8=Good Lovin
TTITLE9=Casey Jones
EXTD=
EXTT0=
EXTT1=
EXTT2=
EXTT3=
EXTT4=
EXTT5=
EXTT6=
EXTT7=
EXTT8=
EXTT9=
PLAYORDER=
